inDegrees=no
num_controls=7
num_derivatives=13
num_iterations=121
num_multipliers=7
num_parameters=0
num_slacks=7
num_states=26
objective=0.266241
objective_accelerations=0.000000
objective_balance=0.002485
objective_effort=0.077319
objective_height=0.182274
objective_ligament=0.004163
solver_duration=1371.198802
status=Solve_Succeeded
success=true
DataType=double
version=3
OpenSimVersion=4.5
endheader
time	/jointset/ground_pelvis/pelvis_tilt/value	/jointset/ground_pelvis/pelvis_tx/value	/jointset/ground_pelvis/pelvis_ty/value	/jointset/hip_r/hip_flexion_r/value	/jointset/hip_r/hip_adduction_r/value	/jointset/hip_r/hip_rotation_r/value	/jointset/back/lumbar_extension/value	/jointset/patellofemoral_r/patellar_flexion_r/value	/jointset/knee_r/knee_flexion_r/value	/jointset/knee_r/knee_adduction_r/value	/jointset/knee_r/knee_rotation_r/value	/jointset/ankle_r/ankle_angle_r/value	/jointset/subtalar_r/subtalar_angle_r/value	/jointset/ground_pelvis/pelvis_tilt/speed	/jointset/ground_pelvis/pelvis_tx/speed	/jointset/ground_pelvis/pelvis_ty/speed	/jointset/hip_r/hip_flexion_r/speed	/jointset/hip_r/hip_adduction_r/speed	/jointset/hip_r/hip_rotation_r/speed	/jointset/back/lumbar_extension/speed	/jointset/patellofemoral_r/patellar_flexion_r/speed	/jointset/knee_r/knee_flexion_r/speed	/jointset/knee_r/knee_adduction_r/speed	/jointset/knee_r/knee_rotation_r/speed	/jointset/ankle_r/ankle_angle_r/speed	/jointset/subtalar_r/subtalar_angle_r/speed	/forceset/tau_hip_flexion_r	/forceset/tau_hip_adduction_r	/forceset/tau_hip_rotation_r	/forceset/tau_knee_flexion_r	/forceset/tau_ankle_angle_r	/forceset/tau_subtalar_angle_r	/forceset/tau_lumbar_extension	lambda_cid13_p0	lambda_cid14_p0	lambda_cid14_p1	lambda_cid14_p2	lambda_cid14_p3	lambda_cid14_p4	lambda_cid14_p5	/jointset/ground_pelvis/pelvis_tilt/accel	/jointset/ground_pelvis/pelvis_tx/accel	/jointset/ground_pelvis/pelvis_ty/accel	/jointset/hip_r/hip_flexion_r/accel	/jointset/hip_r/hip_adduction_r/accel	/jointset/hip_r/hip_rotation_r/accel	/jointset/back/lumbar_extension/accel	/jointset/patellofemoral_r/patellar_flexion_r/accel	/jointset/knee_r/knee_flexion_r/accel	/jointset/knee_r/knee_adduction_r/accel	/jointset/knee_r/knee_rotation_r/accel	/jointset/ankle_r/ankle_angle_r/accel	/jointset/subtalar_r/subtalar_angle_r/accel	gamma_cid13_p0	gamma_cid14_p0	gamma_cid14_p1	gamma_cid14_p2	gamma_cid14_p3	gamma_cid14_p4	gamma_cid14_p5
0	-0.01411616785274756	0.1356701535234426	0.9316582086864053	0.1934211968871041	-0.2464687668484827	-0.213845079300233	-0.2903787966825928	0.2311786273363397	0.2311786273363406	0.1745300268594123	0.1574048888714717	0.089344008118978	0.04082703452592031	0	0	0	0	0	0	0	0	0	0	0	0	0	0.2918543553856374	-0.06414052816422108	0.04915079681467392	0.3379809772814282	0.052899170863028	-0.02267843644474782	-0.52573576944033	-29.5883181514776	86.82781943991316	10.02907937619254	-6.517410015939262	-243.0829307200172	999.8559961170291	50.86911098598237	-50.62848064779376	-24.64533896336374	-31.15756324331299	410.0660183253034	120.1058362714354	-42.26130584189823	-10.90192619436052	559.4588794692696	559.4588794775797	-403.3117987232558	123.1168014134558	283.4032735760825	225.9718923002094	-0.0001974372848721535	-0.00207305024920345	-0.009683418922511667	0.01682779524905178	0.0008835582443688282	0.01073109023840072	-0.02174691758081918
0.01	-0.0172309658734788	0.1345095629823258	0.9300916285429738	0.2130929586138557	-0.2408269093673446	-0.215933243218613	-0.2900819987112505	0.2565579355816592	0.2565579355816586	0.1555590881024289	0.1626918489891956	0.1021991394326256	0.05141706297563328	-0.637358705112026	-0.2231595784530536	-0.331541786093077	3.750528632744834	1.020707826944759	-0.3705063428815007	0.108637829570935	4.727398495948515	4.727398495968049	-3.528622072535229	0.8737497786114939	2.390277074769108	1.967192785613934	0.283020871346703	-0.06806850931839914	0.04104954537444168	0.2734714957471673	0.01384221566806315	-0.07479183114951433	-0.4574521753927815	-29.86802261718152	66.88043034370348	-17.95767498240241	0.05569651846810991	-111.5471169501943	999.9949299073348	-25.62448137092689	-73.14011640102461	-19.63077617185778	-34.74013185564429	329.4384193125326	79.26088648903642	-24.49415342266144	29.13837282818378	377.1503491472913	377.1503491450912	-287.3765466450569	44.90322735564894	188.9976631285534	160.032057420255	0.0003504606158710613	-0.0002855713914115164	-0.005239168144022207	0.00785603715545893	0.000262927778602134	0.004513658810473017	-0.01000024991351772
0.02	-0.02728946113695457	0.1314214748795622	0.9250921014259438	0.2646484333807469	-0.2277364475001515	-0.2197362415480864	-0.2872204753851261	0.3187652316843939	0.3187652316843888	0.1093541015948135	0.1717961391471647	0.1333885892342099	0.07726683642713951	-1.388739448548757	-0.3854995123293721	-0.6865893947197261	6.376742608028038	1.489720877211127	-0.342966882218419	0.5129450709564002	7.365597571482985	7.365597571483048	-5.446809550126479	0.7634660080490971	3.666863697587356	3.051949000358651	0.2741873873077706	-0.07199649047257788	0.03294829393420938	0.2089620142129106	-0.02521473952689981	-0.1269052258542813	-0.3891685813452334	-30.24590772940257	44.75387691599678	-48.733552468616	9.85300337890976	56.24289962590215	999.2568202411549	-141.1307982994769	-73.43288831273489	-12.48141004801672	-35.85872775002741	185.2030868329776	9.766880935757101	37.34785486701828	48.23195616854552	141.6189953864606	141.6189953869697	-81.22487973445998	-73.68990842132237	60.66518318591041	49.4845781263659	0.0008983585166142761	0.001501907466380418	-0.0007949173655327473	-0.001115720938133922	-0.0003577026871645603	-0.001703772617454687	0.00174641775378374
0.03	-0.04564292370580911	0.1269906552804425	0.9163010573265119	0.3376920403843214	-0.2129554096698887	-0.2202338033085275	-0.2785714459999027	0.3983546414435525	0.3983546414435503	0.05276610742178342	0.1744772879513125	0.1722121736044248	0.1093529698661076	-2.358186838394649	-0.4980134489544032	-1.07806679786513	8.259879688107079	1.436120161268045	0.3129464417555824	1.31828584605924	8.500905318757274	8.500905318758122	-5.717326815511733	-0.2756548042395249	4.036061053849063	3.306069634734747	0.2829889484691272	-0.06737969362785966	0.02358013133714032	0.2048466083039053	-0.00661477736048704	-0.1002359769959332	-0.3296412703987581	-29.98870204012155	49.67072247266253	-39.21497966578204	11.6783233999418	101.0662148075011	999.9904568249657	-168.0220216684862	-119.8641372124949	-10.31278982400299	-42.12522796012233	194.301618258893	-18.00343410314873	89.99248360475535	111.8988941767939	91.59791972697982	91.59791972680055	22.79178050534236	-126.5148730942103	16.14896330897131	4.189493745465527	0.0002840879009262801	0.0003565475940812445	0.000270229742965234	-0.002951754290141602	-6.144270472065242e-05	-0.002036171781078179	0.002595332696492013
0.04	-0.07592355475151845	0.1214994154442213	0.9033286429229609	0.4304535381213916	-0.1997263562478182	-0.2121163493407957	-0.2588262576645229	0.4877193797412674	0.4877193797412678	-0.001975673315918563	0.1652688875402583	0.2129481218297907	0.1421430471792834	-3.774173143919683	-0.5975835597497012	-1.522863455543549	10.32032075472715	1.179323995572651	1.380036263416156	2.732176860987709	9.320663279194228	9.320663279194168	-5.077566863060968	-1.614443834991274	4.049336468617587	3.192737775200205	0.2917905096304835	-0.06276289678314133	0.01421196874007035	0.2007312023948994	0.01198518480592555	-0.07356672813758512	-0.2701139594522828	-28.55674370196073	52.03528965054078	-28.68799829541111	11.67651609908617	120.8350066363469	938.8558595588943	-170.1298829201278	-162.7406714485633	-9.892644882070122	-46.52257865663029	220.6638841411836	-30.87220901470515	119.5831544043326	169.9420041336715	78.50903801899328	78.50903801916397	100.830563832744	-133.6235521139477	-10.51920511272629	-24.00592065576187	-0.0003541449522139062	-0.0008492831798692921	0.001265704610844835	-0.004640659296961955	0.0002537222354183198	-0.002247230073272715	0.003219551706734448
0.05	-0.1201639430580588	0.1150868505740954	0.8860802042952109	0.5418860319201051	-0.189765593086838	-0.1923028145394013	-0.2247489597882343	0.5835657845134083	0.5835657845134066	-0.04590506949861477	0.1430330392596203	0.2522153357759386	0.1721088978021405	-4.963061946461351	-0.681760537150069	-1.899697153929206	11.7952685282815	0.8061708006659483	2.548865857691376	3.963940252769944	9.764956503304701	9.764956503305452	-3.631720496764483	-2.718997573102645	3.773292860246777	2.758799451928959	0.2430413546745113	-0.04474077984109894	0.008984923466957758	0.1135703523266011	-0.01524845530489337	-0.06890068339094529	-0.2238718340225875	-25.56005467764563	17.86637353829125	-32.663383211389	12.34351541165868	139.1293073891974	556.2962616167537	-150.6811718981519	-80.39801481573828	-7.151601365732708	-29.64584955415837	85.16919508709249	-42.14973682824503	109.7507969667922	81.89213747548041	14.91627524531791	14.91627524532897	177.8866223798435	-82.62378571359895	-40.92068685607887	-59.67491009299415	-0.0004201999627021003	-0.0008188951365805776	0.001050507638197258	-0.003148250847638246	0.0001683909980920435	-0.00130474498918347	0.001744015004343292
0.06	-0.1729802254217698	0.1079382404906233	0.8657870118586796	0.6629197976792686	-0.1838589342948432	-0.1619573967897196	-0.1819343018391271	0.6813604836543029	0.6813604836543018	-0.07309101214799731	0.1130011533870951	0.2877673640070141	0.1964179408062475	-5.489351955353812	-0.7447926024189401	-2.131814217299858	12.24057514681711	0.3685031217755572	3.486412853073611	4.479648875551413	9.710322152944917	9.710322152945473	-1.728876156398282	-3.173651353368699	3.306299325603147	2.061376251450183	0.1942921997185393	-0.02671866289905636	0.003757878193845736	0.02640950225830321	-0.04248209541571211	-0.06423463864430506	-0.177629708592892	-21.27820315026897	-12.3442941496745	-35.99358276608299	12.93958703306832	139.2551194065489	227.062409498682	-121.6189903697345	-30.2209127187221	-5.663662455770772	-17.57925165362936	14.73565313743539	-43.77510581144286	73.32663462573547	26.73105033351804	-21.27647687505821	-21.27647687508822	192.2301586466875	-3.643560544884244	-48.70919036729022	-76.70289609726818	-0.0004621632745523156	-0.0007364557746712629	0.0007843350091064309	-0.001521892358055841	6.619676381986202e-05	-0.0003136896576717509	0.0001800675351044051
